Coordinates
version=1
nRows=7
nColumns=40
inDegrees=yes

Units are S.I. units (second, meters, Newtons, ...)
If the header above contains a line with 'inDegrees', this indicates whether rotational values are in degrees (yes) or radians (no).

endheader
time	pelvis_tilt	pelvis_list	pelvis_rotation	pelvis_tx	pelvis_ty	pelvis_tz	hip_flexion_r	hip_adduction_r	hip_rotation_r	knee_angle_r	knee_angle_r_beta	ankle_angle_r	subtalar_angle_r	mtp_angle_r	hip_flexion_l	hip_adduction_l	hip_rotation_l	knee_angle_l	knee_angle_l_beta	ankle_angle_l	subtalar_angle_l	mtp_angle_l	lumbar_extension	lumbar_bending	lumbar_rotation	arm_flex_r	arm_add_r	arm_rot_r	elbow_flex_r	pro_sup_r	wrist_flex_r	wrist_dev_r	arm_flex_l	arm_add_l	arm_rot_l	elbow_flex_l	pro_sup_l	wrist_flex_l	wrist_dev_l
      0.68000000	     14.18347677	     -3.75259004	     -4.81853602	      1.01696233	      0.92882930	     -0.35095324	    -29.74326708	      2.67747701	     -2.29493058	     25.66156066	      0.44787872	     -8.25705739	      0.00000000	      0.00000000	     18.26951977	     -2.62629184	     -0.23755783	     22.25254541	      0.38838018	    -17.90226290	      0.00000000	      0.00000000	    -28.59184075	      1.88300876	      7.95588479	     13.25145263	    -18.38220842	     14.66974915	     47.05329296	     71.63340753	      0.00000000	      0.00000000	     -0.66702983	    -18.10657691	     16.76663781	     42.74178150	     76.49138114	      0.00000000	      0.00000000
      0.68400000	     14.23249245	     -3.62901176	     -4.73444332	      1.02356057	      0.92883512	     -0.35104973	    -29.73665068	      2.52694965	     -2.15994974	     26.24963681	      0.45814259	     -9.30536758	      0.00000000	      0.00000000	     18.36495282	     -2.40371776	      0.13432396	     23.21455407	      0.40517040	    -17.97162396	      0.00000000	      0.00000000	    -28.56628916	      1.71902818	      7.73349580	     13.07535141	    -18.16161682	     14.43325665	     46.75100795	     71.67648874	      0.00000000	      0.00000000	     -0.69071357	    -18.19289331	     16.75221133	     42.70312492	     76.47961645	      0.00000000	      0.00000000
      0.68800000	     14.27609773	     -3.41183452	     -4.63486093	      1.03047015	      0.92884788	     -0.35155221	    -29.73818488	      2.25095409	     -2.12702593	     26.80069583	      0.46776038	    -10.44564123	      0.00000000	      0.00000000	     18.45848065	     -2.07254118	      0.31241617	     24.21664041	      0.42266011	    -17.94373504	      0.00000000	      0.00000000	    -28.47340119	      1.51068843	      7.46446742	     12.80388805	    -17.98989712	     14.23282596	     46.50808642	     71.72993991	      0.00000000	      0.00000000	     -0.72004261	    -18.19882619	     16.74505153	     42.57961848	     76.48805668	      0.00000000	      0.00000000
      0.69200000	     14.35881027	     -3.21814842	     -4.57093679	      1.03725837	      0.92909014	     -0.35211158	    -29.73089233	      1.96951456	     -2.06969528	     27.37621566	      0.47780510	    -11.68944460	      0.00000000	      0.00000000	     18.43176821	     -1.74080214	      0.60405699	     25.08908299	      0.43788710	    -17.89808428	      0.00000000	      0.00000000	    -28.47027106	      1.30901203	      7.22333600	     12.49880532	    -17.83391626	     13.98529892	     46.37575374	     71.78593652	      0.00000000	      0.00000000	     -0.76373302	    -18.19810519	     16.66116207	     42.52141273	     76.50751089	      0.00000000	      0.00000000
      0.69600000	     14.45037525	     -3.01519994	     -4.48886016	      1.04381908	      0.92947205	     -0.35222795	    -29.72976740	      1.77509683	     -1.80299554	     27.94309037	      0.48769893	    -12.74715893	      0.00000000	      0.00000000	     18.32362095	     -1.38399692	      1.11289868	     25.78584620	      0.45004792	    -17.91050635	      0.00000000	      0.00000000	    -28.49860768	      1.08135752	      6.97846602	     12.29419686	    -17.60929057	     13.72187275	     46.10473801	     71.81144833	      0.00000000	      0.00000000	     -0.73894338	    -18.22019185	     16.59681700	     42.39783590	     76.50034175	      0.00000000	      0.00000000
      0.70000000	     14.54051451	     -2.77833881	     -4.33540494	      1.05101521	      0.92985638	     -0.35272315	    -29.72121320	      1.45368947	     -2.15271164	     28.47471023	      0.49697745	    -14.51603296	      0.00000000	      0.00000000	     18.22451071	     -1.00843756	      1.35447944	     26.58253657	      0.46395279	    -17.57736100	      0.00000000	      0.00000000	    -28.43737816	      0.86825645	      6.65773950	     11.94320693	    -17.38916211	     13.42013889	     45.87930078	     71.89585238	      0.00000000	      0.00000000	     -0.83675902	    -18.32295152	     16.58574591	     42.34898057	     76.67650748	      0.00000000	      0.00000000
      0.70400000	     14.65909146	     -2.56826316	     -4.25684845	      1.05779320	      0.93040604	     -0.35300026	    -29.71666135	      1.20217979	     -2.01876405	     29.06339399	      0.50725192	    -15.71535354	      0.00000000	      0.00000000	     18.05144212	     -0.65793123	      1.71248578	     27.23420548	      0.47532655	    -17.56531902	      0.00000000	      0.00000000	    -28.47113268	      0.64236969	      6.39823087	     11.69358574	    -17.20486378	     13.24199184	     45.63947046	     71.93513828	      0.00000000	      0.00000000	     -0.82768628	    -18.30230036	     16.59460162	     42.23952939	     76.66212468	      0.00000000	      0.00000000
